<svg width="512" height="512" viewBox="0 0 512 512" fill="none" xmlns="http://www.w3.org/2000/svg">
<g clip-path="url(#clip0_223_2)">
<path d="M179.877 300.256C179.139 298.968 178.585 297.496 178.308 295.932C178.585 297.404 179.139 298.876 179.877 300.256Z" fill="#083042"/>
<path d="M179.784 214.412C179.046 216.16 178.585 218 178.4 220.025C178.585 218 179.046 216.16 179.784 214.412Z" fill="#083042"/>
<path d="M181.815 302.648C182.553 303.384 183.384 304.029 184.307 304.489L247.235 339.912L184.307 304.489C183.384 304.029 182.553 303.384 181.815 302.648Z" fill="#083042"/>
<path d="M256.923 384.72C256.738 384.72 256.554 384.72 256.461 384.72C251.848 384.72 247.234 383.616 243.082 381.316L149.151 328.503C143.615 325.375 140.201 319.578 140.201 313.321V205.855C140.201 201.255 141.031 196.838 142.969 192.974L69.5214 151.846C66.4765 158.287 64.9079 165.556 65.0002 173.192V350.677C65.0925 361.074 70.721 370.643 79.8558 375.795L234.778 463.019C241.606 466.884 249.264 468.724 256.83 468.724V468.632C257.015 457.499 256.923 412.875 256.923 384.72Z" fill="#083042"/>
<path d="M330.647 212.48C330.462 212.204 330.278 211.928 330.093 211.652C329.632 211.008 329.17 210.456 328.709 209.812C329.17 210.364 329.632 211.008 330.093 211.652C330.278 211.836 330.462 212.112 330.647 212.48Z" fill="#3DDB85"/>
<path d="M180.615 212.572C180.984 211.928 181.445 211.284 181.907 210.64C181.445 211.284 180.984 211.928 180.615 212.572Z" fill="#3DDB85"/>
<path d="M253.325 169.42C253.786 169.42 254.156 169.328 254.617 169.328C254.156 169.42 253.694 169.42 253.325 169.42Z" fill="#3DDB85"/>
<path d="M142.877 192.882C144.907 188.65 148.044 185.153 152.288 182.577L240.683 130.592C248.895 125.716 259.045 125.624 267.442 130.316L356.759 180.645C360.727 182.853 364.233 186.073 366.817 189.846L439.065 146.878C434.82 140.713 429.1 135.469 422.548 131.788L275.008 48.7045C261.259 40.9758 244.466 41.1598 230.902 49.1646L85.0231 134.917C78.0105 139.057 72.8433 144.946 69.5216 151.846L142.877 192.882Z" fill="#3DDC85"/>
<path d="M249.634 170.156C249.819 170.064 250.003 170.064 250.188 169.972C250.003 170.064 249.819 170.064 249.634 170.156Z" fill="#3DDB85"/>
<path d="M180.061 213.584C180.246 213.216 180.43 212.848 180.615 212.572C180.43 212.94 180.246 213.216 180.061 213.584C179.969 213.86 179.877 214.136 179.784 214.412C179.877 214.136 179.969 213.86 180.061 213.584Z" fill="#3DDB85"/>
<path d="M438.972 146.878L366.725 189.846C369.493 193.894 371.154 198.679 371.246 203.555V305.869C371.338 315.438 366.355 324.27 358.143 329.055L269.748 381.04C265.781 383.34 261.352 384.628 256.923 384.72C257.015 412.783 257.015 457.407 256.83 468.54V468.632C264.489 468.54 272.055 466.516 278.883 462.559L424.763 376.715C438.326 368.711 446.631 354.173 446.446 338.44V169.604C446.354 161.415 443.586 153.594 438.972 146.878Z" fill="#4285F4"/>
<path d="M332.308 294.92C332.215 295.104 332.215 295.288 332.123 295.472C332.215 295.288 332.308 295.104 332.308 294.92Z" fill="#4285F4"/>
<path d="M331.385 213.676C331.2 213.216 330.924 212.848 330.647 212.388C330.924 212.848 331.2 213.308 331.385 213.676Z" fill="#4285F4"/>
<path d="M265.135 339.82L324.372 304.949C324.742 304.765 325.018 304.489 325.387 304.305C325.018 304.489 324.742 304.765 324.372 304.949L265.135 339.82Z" fill="#4285F4"/>
<path d="M331.569 297.036C331.385 297.496 331.108 297.956 330.924 298.416C331.108 297.864 331.293 297.404 331.569 297.036Z" fill="#4285F4"/>
<path d="M327.233 302.832C328.063 302.096 328.894 301.176 329.632 300.256C328.894 301.176 328.063 302.096 327.233 302.832Z" fill="#4285F4"/>
<path d="M330.831 298.324C330.462 298.968 330.001 299.612 329.54 300.256C330.001 299.612 330.462 298.968 330.831 298.324Z" fill="#4285F4"/>
<path d="M179.784 214.412C179.046 216.16 178.585 218 178.4 220.025C178.308 220.761 178.308 221.497 178.308 222.325V294.368C178.308 294.92 178.308 295.38 178.4 295.932C178.585 297.496 179.139 298.968 179.969 300.256C180.523 301.176 181.168 301.912 181.814 302.648C182.553 303.384 183.383 304.029 184.306 304.489L247.234 339.912C250.002 341.476 253.14 342.212 256.184 342.212C256.369 342.212 256.646 342.212 256.83 342.212C259.691 342.12 262.551 341.292 265.135 339.728L324.372 304.857C324.741 304.673 325.018 304.397 325.387 304.213C326.033 303.752 326.679 303.292 327.233 302.74C328.063 302.004 328.894 301.084 329.632 300.164C330.093 299.52 330.554 298.876 330.924 298.232C331.2 297.772 331.385 297.312 331.569 296.852C331.754 296.392 332.031 295.84 332.215 295.288C332.308 295.104 332.308 294.92 332.4 294.736C332.954 292.987 333.23 291.147 333.23 289.215V220.669C333.23 219.381 333.046 218.184 332.769 216.988C332.584 216.16 332.308 215.424 332.031 214.688C331.846 214.32 331.662 213.952 331.477 213.584C331.293 213.124 331.016 212.756 330.739 212.296C330.554 212.02 330.37 211.744 330.185 211.468C329.724 210.824 329.263 210.272 328.801 209.628C327.325 207.879 325.48 206.407 323.45 205.303L263.566 171.536C262.551 170.984 261.444 170.432 260.337 170.064C258.86 169.604 257.292 169.328 255.723 169.236C255.354 169.236 254.985 169.236 254.524 169.236C254.062 169.236 253.693 169.236 253.232 169.328C252.217 169.42 251.11 169.604 250.095 169.88C249.91 169.972 249.725 169.972 249.541 170.064C248.157 170.432 246.865 171.076 245.573 171.812L186.336 206.683C184.582 207.695 183.106 209.076 181.907 210.64C181.445 211.284 180.984 211.928 180.615 212.572C180.43 212.94 180.246 213.216 180.061 213.584C179.969 213.86 179.877 214.136 179.784 214.412Z" fill="#D6F0FF"/>
<path d="M256.83 342.212C256.646 342.212 256.369 342.212 256.184 342.212C253.14 342.212 250.002 341.476 247.234 339.912L184.306 304.489C183.383 303.937 182.553 303.384 181.814 302.648C181.076 301.912 180.43 301.084 179.969 300.256C179.231 298.968 178.677 297.496 178.4 295.932C178.308 295.38 178.308 294.92 178.308 294.368V222.325C178.308 221.589 178.308 220.761 178.4 220.025C178.585 218.092 179.046 216.16 179.784 214.412L162.807 204.015L142.877 192.882C141.031 196.746 140.109 201.163 140.109 205.763V313.229C140.201 319.486 143.615 325.283 149.059 328.411L242.898 381.316C247.05 383.616 251.663 384.812 256.277 384.72C256.461 384.72 256.646 384.72 256.738 384.72C256.738 371.011 256.646 361.258 256.646 361.258L256.83 342.212Z" fill="#083042"/>
<path d="M256.83 342.212C256.646 342.212 256.369 342.212 256.184 342.212C253.14 342.212 250.002 341.476 247.234 339.912L184.306 304.489C183.383 303.937 182.553 303.384 181.814 302.648C181.076 301.912 180.43 301.084 179.969 300.256C179.231 298.968 178.677 297.496 178.4 295.932C178.308 295.38 178.308 294.92 178.308 294.368V222.325C178.308 221.589 178.308 220.761 178.4 220.025C178.585 218.092 179.046 216.16 179.784 214.412L162.807 204.015L142.877 192.882C141.031 196.746 140.109 201.163 140.109 205.763V313.229C140.201 319.486 143.615 325.283 149.059 328.411L242.898 381.316C247.05 383.616 251.663 384.812 256.277 384.72C256.461 384.72 256.646 384.72 256.738 384.72C256.738 371.011 256.646 361.258 256.646 361.258L256.83 342.212Z" fill="#041619"/>
<path d="M356.667 180.645L267.349 130.316C259.045 125.624 248.895 125.716 240.591 130.592L152.195 182.577C147.951 185.061 144.814 188.65 142.784 192.882L162.807 204.015L179.784 214.412C179.877 214.136 179.969 213.86 180.061 213.584C180.246 213.216 180.43 212.848 180.615 212.572C180.984 211.928 181.445 211.284 181.907 210.64C183.106 209.076 184.583 207.787 186.336 206.683L245.573 171.812C246.865 171.076 248.157 170.524 249.541 170.064C249.726 169.972 249.91 169.972 250.095 169.88C251.11 169.604 252.125 169.42 253.232 169.328C253.693 169.328 254.062 169.236 254.524 169.236C254.893 169.236 255.262 169.236 255.723 169.236C257.292 169.328 258.768 169.604 260.337 170.064C261.444 170.432 262.551 170.892 263.566 171.536L323.45 205.303C325.48 206.407 327.233 207.88 328.801 209.628C329.263 210.18 329.724 210.824 330.185 211.468C330.37 211.744 330.555 212.02 330.739 212.296L346.056 202.083L366.817 189.662C364.141 186.073 360.727 182.853 356.667 180.645Z" fill="#3DDB85"/>
<path d="M356.667 180.645L267.349 130.316C259.045 125.624 248.895 125.716 240.591 130.592L152.195 182.577C147.951 185.061 144.814 188.65 142.784 192.882L162.807 204.015L179.784 214.412C179.877 214.136 179.969 213.86 180.061 213.584C180.246 213.216 180.43 212.848 180.615 212.572C180.984 211.928 181.445 211.284 181.907 210.64C183.106 209.076 184.583 207.787 186.336 206.683L245.573 171.812C246.865 171.076 248.157 170.524 249.541 170.064C249.726 169.972 249.91 169.972 250.095 169.88C251.11 169.604 252.125 169.42 253.232 169.328C253.693 169.328 254.062 169.236 254.524 169.236C254.893 169.236 255.262 169.236 255.723 169.236C257.292 169.328 258.768 169.604 260.337 170.064C261.444 170.432 262.551 170.892 263.566 171.536L323.45 205.303C325.48 206.407 327.233 207.88 328.801 209.628C329.263 210.18 329.724 210.824 330.185 211.468C330.37 211.744 330.555 212.02 330.739 212.296L346.056 202.083L366.817 189.662C364.141 186.073 360.727 182.853 356.667 180.645Z" fill="#37BF6E"/>
<path d="M330.647 212.48C330.924 212.94 331.108 213.308 331.385 213.768C331.57 214.136 331.754 214.504 331.939 214.872C332.215 215.608 332.492 216.436 332.677 217.172C332.954 218.368 333.138 219.565 333.138 220.853V289.399C333.138 291.331 332.861 293.171 332.308 294.92C332.215 295.104 332.215 295.288 332.123 295.472C331.939 296.024 331.754 296.484 331.477 297.036C331.293 297.496 331.016 297.956 330.831 298.416C330.462 299.06 330.001 299.704 329.54 300.348C328.801 301.268 328.063 302.096 327.141 302.924C326.587 303.476 325.941 303.936 325.295 304.397C324.926 304.581 324.649 304.857 324.28 305.041L265.043 339.912C262.459 341.384 259.599 342.212 256.738 342.396V361.442C256.738 361.442 256.738 371.195 256.83 384.904C261.259 384.812 265.688 383.616 269.656 381.224L358.051 329.239C366.263 324.362 371.246 315.53 371.154 306.053V203.739C371.061 198.771 369.4 194.078 366.632 190.03L345.871 202.451L330.647 212.48Z" fill="#4285F4"/>
<path d="M330.647 212.48C330.924 212.94 331.108 213.308 331.385 213.768C331.57 214.136 331.754 214.504 331.939 214.872C332.215 215.608 332.492 216.436 332.677 217.172C332.954 218.368 333.138 219.565 333.138 220.853V289.399C333.138 291.331 332.861 293.171 332.308 294.92C332.215 295.104 332.215 295.288 332.123 295.472C331.939 296.024 331.754 296.484 331.477 297.036C331.293 297.496 331.016 297.956 330.831 298.416C330.462 299.06 330.001 299.704 329.54 300.348C328.801 301.268 328.063 302.096 327.141 302.924C326.587 303.476 325.941 303.936 325.295 304.397C324.926 304.581 324.649 304.857 324.28 305.041L265.043 339.912C262.459 341.384 259.599 342.212 256.738 342.396V361.442C256.738 361.442 256.738 371.195 256.83 384.904C261.259 384.812 265.688 383.616 269.656 381.224L358.051 329.239C366.263 324.362 371.246 315.53 371.154 306.053V203.739C371.061 198.771 369.4 194.078 366.632 190.03L345.871 202.451L330.647 212.48Z" fill="#3870B2"/>
<path d="M249.634 170.156C248.25 170.524 246.958 171.168 245.667 171.904L186.429 206.775L245.667 171.904C246.866 171.168 248.25 170.524 249.634 170.156Z" fill="#D6F0FF"/>
<path opacity="0.1" d="M249.634 170.156C248.25 170.524 246.958 171.168 245.667 171.904L186.429 206.775L245.667 171.904C246.866 171.168 248.25 170.524 249.634 170.156Z" fill="black"/>
<path d="M328.71 209.812C327.234 208.064 325.388 206.591 323.358 205.487L263.475 171.72L323.358 205.487C325.388 206.591 327.234 208.064 328.71 209.812Z" fill="#D6F0FF"/>
<path opacity="0.1" d="M328.71 209.812C327.234 208.064 325.388 206.591 323.358 205.487L263.475 171.72L323.358 205.487C325.388 206.591 327.234 208.064 328.71 209.812Z" fill="black"/>
<path d="M250.187 169.972C251.202 169.696 252.217 169.512 253.324 169.42C252.217 169.512 251.202 169.696 250.187 169.972Z" fill="#D6F0FF"/>
<path opacity="0.1" d="M250.187 169.972C251.202 169.696 252.217 169.512 253.324 169.42C252.217 169.512 251.202 169.696 250.187 169.972Z" fill="black"/>
<path d="M255.723 169.42C257.292 169.512 258.768 169.788 260.337 170.248C258.768 169.788 257.292 169.512 255.723 169.42Z" fill="#D6F0FF"/>
<path opacity="0.1" d="M255.723 169.42C257.292 169.512 258.768 169.788 260.337 170.248C258.768 169.788 257.292 169.512 255.723 169.42Z" fill="black"/>
<path d="M332.123 295.472C331.939 296.024 331.754 296.484 331.477 297.036C331.754 296.484 331.939 296.024 332.123 295.472Z" fill="#D6F0FF"/>
<path opacity="0.1" d="M332.123 295.472C331.939 296.024 331.754 296.484 331.477 297.036C331.754 296.484 331.939 296.024 332.123 295.472Z" fill="black"/>
<path d="M331.939 214.78C332.215 215.516 332.492 216.344 332.677 217.08C332.492 216.344 332.215 215.608 331.939 214.78Z" fill="#D6F0FF"/>
<path opacity="0.1" d="M331.939 214.78C332.215 215.516 332.492 216.344 332.677 217.08C332.492 216.344 332.215 215.608 331.939 214.78Z" fill="black"/>
<path d="M332.308 294.92C332.861 293.171 333.138 291.331 333.138 289.399V220.853V289.399C333.138 291.331 332.861 293.171 332.308 294.92Z" fill="#D6F0FF"/>
<path opacity="0.1" d="M332.308 294.92C332.861 293.171 333.138 291.331 333.138 289.399V220.853V289.399C333.138 291.331 332.861 293.171 332.308 294.92Z" fill="black"/>
</g>
<defs>
<clipPath id="clip0_223_2">
<rect width="382" height="426" fill="white" transform="translate(65 43)"/>
</clipPath>
</defs>
</svg>
